<svg version="1.1"
 xmlns="http://www.w3.org/2000/svg" x="0px" y="0px" viewBox="0 0 1240 1240"
 aria-hidden="true" focusable="false" role="img" class="svg-inline--fa fa-w-20 fa-fw fa-4x"
 style="enable-background:new 0 0 1240 1240;" xml:space="preserve">

    <!-- left border -->
    <path style="opacity: 0.25; fill: #003DA5"
        d="M628.8,1165l-5.6-3.2c-263-153.3-411.5-385.3-441.1-689.6c-16.6-169.8,9.8-319.6,27-393.8l2-8.6h417.7V3.3
        H160.3c0,0-276,840.4,468.5,1237.8V1165z"/>
    <!-- right border (was 0.5)-->
    <path style="opacity: 0.35; fill: #003DA5"
        d="M628.8,3.3v66.5h417.7l2,8.6c17.2,74.2,43.5,224.1,27,393.8c-29.6,304.3-178.1,536.3-441.1,689.6l-5.6,3.2
        l0,0v76l0,0C1373.3,843.7,1097.3,3.3,1097.3,3.3H628.8z"/>
    <!-- left side (was 0.5) -->
    <path style="opacity: 0.5; fill: #003DA5"
        d="M438.1,798.1c-15.6,0-23.4-7.8-23.4-23.4V276.5c0-15.6,7.8-23.4,23.4-23.4h124.6c15.6,0,23.4,7.8,23.4,23.4
        v373.7h42.8V69.8H211.1l-2,8.6c-17.2,74.2-43.5,224.1-27,393.8c29.6,304.3,178.1,536.3,441.1,689.6l5.6,3.2l0,0v-367H438.1z"/>
    <!-- right side (was 1.0) -->
    <path style="opacity: 0.85; fill: #003DA5"
        d="M1048.5,78.4l-2-8.6H628.8v580.4h0h229.6h0c15.6,0,23.3,7.8,23.3,23.4v101.2c0,7.8-1.9,13.6-5.8,17.5
        c-3.9,3.9-9.7,5.8-17.5,5.8H628.8v367l0,0l5.6-3.2c263-153.3,411.5-385.3,441.1-689.6C1092.1,302.5,1065.7,152.6,1048.5,78.4z"/>
    <!-- letter outline -->
    <path style="opacity: 1.0; fill: #003DA5"
        d="M858.5,619.5H616.7v-343c0-32.3-21.7-54-54-54H438.1c-32.3,0-54,21.7-54,54v498.2c0,32.3,21.7,54,54,54h420.4
        c32.3,0,54-21.7,54-54V673.5C912.5,641.2,890.8,619.5,858.5,619.5z M881.8,774.7c0,15.6-7.8,23.4-23.3,23.4H438.1
        c-15.6,0-23.4-7.8-23.4-23.4V276.5c0-15.6,7.8-23.4,23.4-23.4h124.6c15.6,0,23.4,7.8,23.4,23.4v373.7h272.5
        c15.6,0,23.3,7.8,23.3,23.4V774.7z"/>

</svg>
